<svg width="10" height="10" viewBox="0 0 10 10" fill="none" xmlns="http://www.w3.org/2000/svg">
<path fill-rule="evenodd" clip-rule="evenodd" d="M8.81173 1.11619C8.92889 1.23335 8.92889 1.42329 8.81173 1.54045L1.61174 8.74044C1.49458 8.8576 1.30463 8.8576 1.18748 8.74044C1.07032 8.62328 1.07032 8.43336 1.18748 8.3162L8.38749 1.11619C8.50465 0.99903 8.69457 0.99903 8.81173 1.11619Z" fill="white"/>
<path fill-rule="evenodd" clip-rule="evenodd" d="M1.18748 1.11619C1.30463 0.99903 1.49458 0.99903 1.61174 1.11619L8.81173 8.3162C8.92889 8.43336 8.92889 8.62328 8.81173 8.74044C8.69457 8.8576 8.50465 8.8576 8.38749 8.74044L1.18748 1.54045C1.07032 1.42329 1.07032 1.23335 1.18748 1.11619Z" fill="white"/>
</svg>
