<svg width="19" height="17" viewBox="0 0 19 17" fill="none" xmlns="http://www.w3.org/2000/svg">
<path d="M14.4943 0.152416C13.0687 0.00932227 11.7005 0.467957 10.6459 1.42608C10.1637 1.8655 9.77658 2.39056 9.5 2.96798C9.22342 2.39056 8.83634 1.8655 8.3541 1.42605C7.30019 0.46792 5.93583 0.00676174 4.50634 0.152379C1.97945 0.39385 0 2.66264 0 5.31726C0 11.439 8.88105 16.5195 9.2592 16.7328L9.50831 16.8746L9.75361 16.7265C10.1311 16.4991 19 11.0838 19 5.31726C19 2.66264 17.0212 0.39385 14.4943 0.152416ZM9.49232 15.7313C8.06346 14.8677 0.981098 10.3327 0.981098 5.31726C0.981098 3.16213 2.57027 1.32259 4.59956 1.12839C4.73371 1.11563 4.86719 1.10924 5.00004 1.10924C6.00159 1.10924 6.94628 1.47206 7.69426 2.15168C8.52974 2.91179 9.00941 3.99509 9.00941 5.12437H9.99051C9.99051 3.99505 10.4702 2.91176 11.3057 2.15295C12.1527 1.38133 13.2557 1.01855 14.401 1.12839C16.4297 1.32259 18.0188 3.16213 18.0188 5.31726C18.0189 10.0325 10.9148 14.8205 9.49232 15.7313Z" fill="#808080"/>
</svg>
