<svg width="181" height="37" viewBox="0 0 181 37" fill="none" xmlns="http://www.w3.org/2000/svg">
<path d="M10.1953 28.3984C9.47917 28.3984 8.78255 28.3138 8.10547 28.1445C7.42839 27.9753 6.84896 27.7669 6.36719 27.5195C5.88542 27.2591 5.45573 26.9987 5.07812 26.7383C4.71354 26.4648 4.44661 26.25 4.27734 26.0938L4.00391 25.8008V36.4062H0V8.80859H4.00391V11.0156C4.1862 10.8333 4.4401 10.5924 4.76562 10.293C5.10417 9.99349 5.8138 9.60286 6.89453 9.12109C7.97526 8.63932 9.07552 8.39844 10.1953 8.39844C12.7344 8.39844 14.9349 9.375 16.7969 11.3281C18.6719 13.2682 19.6094 15.625 19.6094 18.3984C19.6094 21.1719 18.6719 23.5352 16.7969 25.4883C14.9349 27.4284 12.7344 28.3984 10.1953 28.3984ZM13.8477 13.8867C12.6758 12.6367 11.3281 12.0117 9.80469 12.0117C8.28125 12.0117 6.93359 12.6367 5.76172 13.8867C4.58984 15.1367 4.00391 16.6471 4.00391 18.418C4.00391 20.1758 4.58984 21.6797 5.76172 22.9297C6.93359 24.1797 8.28125 24.8047 9.80469 24.8047C11.3281 24.8047 12.6758 24.1797 13.8477 22.9297C15.0195 21.6797 15.6055 20.1758 15.6055 18.418C15.6055 16.6471 15.0195 15.1367 13.8477 13.8867Z" fill="#141414"/>
<path d="M36.3852 12.207C35.8513 12.0768 35.2523 12.0117 34.5883 12.0117C33.0648 12.0117 31.8474 12.5065 30.9359 13.4961C30.0375 14.4727 29.5883 15.8464 29.5883 17.6172V28.0078H25.5844V8.80859H29.5883V10.8008L29.8422 10.5469C29.9594 10.4297 30.2068 10.2409 30.5844 9.98047C30.962 9.70703 31.3591 9.46615 31.7758 9.25781C32.2055 9.03646 32.7458 8.84115 33.3969 8.67188C34.0609 8.48958 34.725 8.39844 35.3891 8.39844H36.3852V12.207Z" fill="#141414"/>
<path d="M54.1961 22.9492C55.381 21.7122 55.9734 20.2018 55.9734 18.418C55.9734 16.6211 55.381 15.1042 54.1961 13.8672C53.0112 12.6302 51.6049 12.0117 49.9773 12.0117C48.3497 12.0117 46.937 12.6302 45.7391 13.8672C44.5542 15.1042 43.9617 16.6211 43.9617 18.418C43.9617 20.2018 44.5542 21.7122 45.7391 22.9492C46.937 24.1862 48.3497 24.8047 49.9773 24.8047C51.6049 24.8047 53.0112 24.1862 54.1961 22.9492ZM42.9461 25.4297C40.9669 23.4375 39.9773 21.1003 39.9773 18.418C39.9773 15.7227 40.9669 13.3789 42.9461 11.3867C44.9383 9.39453 47.282 8.39844 49.9773 8.39844C52.6727 8.39844 55.0099 9.39453 56.9891 11.3867C58.9813 13.3789 59.9773 15.7227 59.9773 18.418C59.9773 21.1003 58.9813 23.4375 56.9891 25.4297C55.0099 27.4089 52.6727 28.3984 49.9773 28.3984C47.282 28.3984 44.9383 27.4089 42.9461 25.4297Z" fill="#141414"/>
<path d="M90.7766 28.0078V16.8164C90.7766 15.2409 90.412 14.0495 89.6828 13.2422C88.9667 12.4219 87.9966 12.0117 86.7727 12.0117C85.5227 12.0117 84.4745 12.513 83.6281 13.5156C82.7948 14.5052 82.3781 15.8724 82.3781 17.6172V28.0078H78.3742V16.8164C78.3742 15.2409 78.0096 14.0495 77.2805 13.2422C76.5643 12.4219 75.5943 12.0117 74.3703 12.0117C73.1203 12.0117 72.0721 12.513 71.2258 13.5156C70.3925 14.5052 69.9758 15.8724 69.9758 17.6172V28.0078H65.9719V8.80859H69.9758V10.8008C70.132 10.6185 70.3469 10.3971 70.6203 10.1367C70.9068 9.86328 71.4927 9.50521 72.3781 9.0625C73.2766 8.61979 74.2076 8.39844 75.1711 8.39844C75.9393 8.39844 76.6685 8.50911 77.3586 8.73047C78.0617 8.9388 78.6216 9.20573 79.0383 9.53125C79.455 9.84375 79.813 10.1628 80.1125 10.4883C80.425 10.8138 80.6464 11.0807 80.7766 11.2891L80.9719 11.6016C81.024 11.5234 81.1086 11.4128 81.2258 11.2695C81.356 11.1263 81.6229 10.8659 82.0266 10.4883C82.4432 10.1107 82.8859 9.78516 83.3547 9.51172C83.8234 9.22526 84.4354 8.97135 85.1906 8.75C85.9589 8.51562 86.7531 8.39844 87.5734 8.39844C89.813 8.39844 91.5708 9.11458 92.8469 10.5469C94.1359 11.9792 94.7805 14.069 94.7805 16.8164V28.0078H90.7766Z" fill="#141414"/>
<path d="M119.779 19.8047H104.779C104.987 21.1589 105.651 22.3307 106.771 23.3203C107.904 24.3099 109.245 24.8047 110.795 24.8047C111.914 24.8047 112.956 24.5508 113.92 24.043C114.896 23.5352 115.586 23.0404 115.99 22.5586L116.595 21.8164L119.193 24.4141C119.115 24.5182 118.991 24.668 118.822 24.8633C118.666 25.0456 118.321 25.3646 117.787 25.8203C117.253 26.263 116.686 26.6602 116.088 27.0117C115.489 27.3503 114.707 27.6693 113.744 27.9688C112.793 28.2552 111.81 28.3984 110.795 28.3984C108.073 28.3984 105.723 27.4023 103.744 25.4102C101.778 23.4049 100.795 21.0026 100.795 18.2031C100.795 15.5078 101.752 13.2031 103.666 11.2891C105.593 9.36198 107.897 8.39844 110.58 8.39844C113.275 8.39844 115.515 9.29688 117.298 11.0938C119.095 12.8776 119.994 15.1172 119.994 17.8125L119.779 19.8047ZM110.58 11.8164C109.134 11.8164 107.917 12.2461 106.927 13.1055C105.951 13.9518 105.293 15.0521 104.955 16.4062H116.068C115.834 15.0521 115.228 13.9518 114.252 13.1055C113.275 12.2461 112.051 11.8164 110.58 11.8164Z" fill="#141414"/>
<path d="M136.574 8.39844C139.113 8.39844 141.314 9.375 143.176 11.3281C145.038 13.2682 145.969 15.625 145.969 18.3984C145.969 21.1719 145.031 23.5352 143.156 25.4883C141.294 27.4284 139.1 28.3984 136.574 28.3984C135.858 28.3984 135.155 28.3138 134.465 28.1445C133.788 27.9753 133.208 27.7669 132.727 27.5195C132.245 27.2591 131.815 26.9987 131.438 26.7383C131.073 26.4648 130.812 26.25 130.656 26.0938L130.363 25.8008V28.0078H126.379V0H130.363V11.0156C130.546 10.8333 130.806 10.5924 131.145 10.293C131.483 9.99349 132.193 9.60286 133.273 9.12109C134.354 8.63932 135.454 8.39844 136.574 8.39844ZM132.121 22.9297C133.306 24.1797 134.654 24.8047 136.164 24.8047C137.688 24.8047 139.035 24.1797 140.207 22.9297C141.379 21.6797 141.965 20.1758 141.965 18.418C141.965 16.6471 141.379 15.1367 140.207 13.8867C139.035 12.6367 137.688 12.0117 136.164 12.0117C134.654 12.0117 133.306 12.6367 132.121 13.8867C130.949 15.1367 130.363 16.6471 130.363 18.418C130.363 20.1758 130.949 21.6797 132.121 22.9297Z" fill="#141414"/>
<path d="M169.776 19.8047H154.776C154.984 21.1589 155.648 22.3307 156.768 23.3203C157.901 24.3099 159.242 24.8047 160.791 24.8047C161.911 24.8047 162.953 24.5508 163.916 24.043C164.893 23.5352 165.583 23.0404 165.987 22.5586L166.592 21.8164L169.19 24.4141C169.112 24.5182 168.988 24.668 168.819 24.8633C168.663 25.0456 168.317 25.3646 167.784 25.8203C167.25 26.263 166.683 26.6602 166.084 27.0117C165.485 27.3503 164.704 27.6693 163.741 27.9688C162.79 28.2552 161.807 28.3984 160.791 28.3984C158.07 28.3984 155.72 27.4023 153.741 25.4102C151.774 23.4049 150.791 21.0026 150.791 18.2031C150.791 15.5078 151.748 13.2031 153.663 11.2891C155.59 9.36198 157.894 8.39844 160.577 8.39844C163.272 8.39844 165.511 9.29688 167.295 11.0938C169.092 12.8776 169.991 15.1172 169.991 17.8125L169.776 19.8047ZM160.577 11.8164C159.131 11.8164 157.914 12.2461 156.924 13.1055C155.948 13.9518 155.29 15.0521 154.952 16.4062H166.065C165.83 15.0521 165.225 13.9518 164.248 13.1055C163.272 12.2461 162.048 11.8164 160.577 11.8164Z" fill="#141414"/>
<path d="M180.36 0V28.0078H176.376V0H180.36Z" fill="#141414"/>
</svg>
